name Walk4.mot
datacolumns 19
datarows 15
range 2.68000000 2.69400000
endheader

                time	   L_ground_force_vx	   L_ground_force_vy	   L_ground_force_vz	   L_ground_force_px	   L_ground_force_py	   L_ground_force_pz	   R_ground_force_vx	   R_ground_force_vy	   R_ground_force_vz	   R_ground_force_px	   R_ground_force_py	   R_ground_force_pz	   L_ground_torque_x	   L_ground_torque_y	   L_ground_torque_z	   R_ground_torque_x	   R_ground_torque_y	   R_ground_torque_z	
          2.68000000	         -0.00307739	         -0.01197865	          0.00135328	         -0.00002759	          0.00000000	         -0.00001014	         -0.15535301	        885.92397057	        -57.77928461	          0.31033278	          0.00000000	          0.13059845	          0.00000000	          0.00013360	          0.00000000	          0.00000000	          2.64463066	          0.00000000	
          2.68100000	         -0.00331271	         -0.01281524	          0.00117929	         -0.00002452	          0.00000000	         -0.00000915	         -0.00033445	        886.11383526	        -57.83222084	          0.31070585	          0.00000000	          0.13068404	          0.00000000	          0.00012600	          0.00000000	          0.00000000	          2.63432568	          0.00000000	
          2.68200000	         -0.00351550	         -0.01353226	          0.00101565	         -0.00002161	          0.00000000	         -0.00000820	          0.15425399	        886.33902500	        -57.88078501	          0.31108010	          0.00000000	          0.13076878	          0.00000000	          0.00011857	          0.00000000	          0.00000000	          2.62430257	          0.00000000	
          2.68300000	         -0.00368777	         -0.01413719	          0.00086208	         -0.00001887	          0.00000000	         -0.00000730	          0.30854863	        886.59988150	        -57.92498572	          0.31145542	          0.00000000	          0.13085263	          0.00000000	          0.00011132	          0.00000000	          0.00000000	          2.61452849	          0.00000000	
          2.68400000	         -0.00383146	         -0.01463726	          0.00071830	         -0.00001629	          0.00000000	         -0.00000646	          0.46267331	        886.89666808	        -57.96486722	          0.31183171	          0.00000000	          0.13093553	          0.00000000	          0.00010427	          0.00000000	          0.00000000	          2.60497419	          0.00000000	
          2.68500000	         -0.00394845	         -0.01503950	          0.00058404	         -0.00001387	          0.00000000	         -0.00000566	          0.61673949	        887.22957151	        -58.00050758	          0.31220885	          0.00000000	          0.13101746	          0.00000000	          0.00009742	          0.00000000	          0.00000000	          2.59561392	          0.00000000	
          2.68600000	         -0.00404057	         -0.01535072	          0.00045899	         -0.00001161	          0.00000000	         -0.00000490	          0.77084654	        887.59870393	        -58.03201665	          0.31258675	          0.00000000	          0.13109836	          0.00000000	          0.00009079	          0.00000000	          0.00000000	          2.58642536	          0.00000000	
          2.68700000	         -0.00410960	         -0.01557746	          0.00034283	         -0.00000949	          0.00000000	         -0.00000419	          0.92508224	        888.00410501	        -58.05953424	          0.31296530	          0.00000000	          0.13117821	          0.00000000	          0.00008438	          0.00000000	          0.00000000	          2.57738941	          0.00000000	
          2.68800000	         -0.00415722	         -0.01572606	          0.00023526	         -0.00000751	          0.00000000	         -0.00000353	          1.07952362	        888.44574373	        -58.08322835	          0.31334442	          0.00000000	          0.13125698	          0.00000000	          0.00007820	          0.00000000	          0.00000000	          2.56848997	          0.00000000	
          2.68900000	         -0.00418509	         -0.01580260	          0.00013594	         -0.00000568	          0.00000000	         -0.00000291	          1.23423780	        888.92351934	        -58.10329355	          0.31372402	          0.00000000	          0.13133465	          0.00000000	          0.00007224	          0.00000000	          0.00000000	          2.55971359	          0.00000000	
          2.69000000	         -0.00419477	         -0.01581292	          0.00004456	         -0.00000398	          0.00000000	         -0.00000233	          1.38928283	        889.43726152	        -58.11994927	          0.31410402	          0.00000000	          0.13141120	          0.00000000	          0.00006652	          0.00000000	          0.00000000	          2.55104911	          0.00000000	
          2.69100000	         -0.00418778	         -0.01576261	         -0.00003923	         -0.00000241	          0.00000000	         -0.00000179	          1.54470835	        889.98672977	        -58.13343810	          0.31448436	          0.00000000	          0.13148662	          0.00000000	          0.00006103	          0.00000000	          0.00000000	          2.54248734	          0.00000000	
          2.69200000	         -0.00416556	         -0.01565702	         -0.00011574	         -0.00000096	          0.00000000	         -0.00000129	          1.70055595	        890.57161282	        -58.14402375	          0.31486499	          0.00000000	          0.13156090	          0.00000000	          0.00005578	          0.00000000	          0.00000000	          2.53402061	          0.00000000	
          2.69300000	         -0.00412948	         -0.01550123	         -0.00018531	          0.00000036	          0.00000000	         -0.00000083	          1.85685954	        891.19152799	        -58.15198907	          0.31524585	          0.00000000	          0.13163404	          0.00000000	          0.00005077	          0.00000000	          0.00000000	          2.52564253	          0.00000000	
          2.69400000	         -0.00408087	         -0.01530012	         -0.00024827	          0.00000158	          0.00000000	         -0.00000041	          2.01364557	        891.84602117	        -58.15763387	          0.31562690	          0.00000000	          0.13170603	          0.00000000	          0.00004599	          0.00000000	          0.00000000	          2.51734777	          0.00000000	
